0
SECTION
2
HEADER
9
$INSUNITS
70
4
0
ENDSEC
0
SECTION
2
ENTITIES
0
LINE
8
OUTLINE
10
0.000000
20
0.000000
11
80.580000
21
0.000000
0
LINE
8
OUTLINE
10
80.580000
20
0.000000
11
80.580000
21
65.340000
0
LINE
8
OUTLINE
10
80.580000
20
65.340000
11
0.000000
21
65.340000
0
LINE
8
OUTLINE
10
0.000000
20
65.340000
11
0.000000
21
0.000000
0
CIRCLE
8
MOUNTING
10
72.040000
20
41.560000
40
1.600000
0
CIRCLE
8
MOUNTING
10
72.040000
20
13.620000
40
1.600000
0
CIRCLE
8
MOUNTING
10
21.240000
20
56.800000
40
1.600000
0
CIRCLE
8
MOUNTING
10
19.970000
20
8.540000
40
1.600000
0
ENDSEC
0
EOF
